<svg xmlns="http://www.w3.org/2000/svg" version="1.0" viewBox="0 0 1297 272">
    <path
        d="M859 27.5c0 .3.2.5.5.5s.5-.2.5-.5-.2-.5-.5-.5-.5.2-.5.5zm55 0c0 .3.2.5.5.5s.5-.2.5-.5-.2-.5-.5-.5-.5.2-.5.5zm-486 14c0 .3.2.5.5.5s.5-.2.5-.5-.2-.5-.5-.5-.5.2-.5.5zm-4.8 3.5c0 1.4.2 1.9.5 1.2.2-.6.2-1.8 0-2.5-.3-.6-.5-.1-.5 1.3zm7 0c0 1.4.2 1.9.5 1.2.2-.6.2-1.8 0-2.5-.3-.6-.5-.1-.5 1.3zm-14.2.5c0 .3.2.5.5.5s.5-.2.5-.5-.2-.5-.5-.5-.5.2-.5.5zm21 0c0 .3.2.5.5.5s.5-.2.5-.5-.2-.5-.5-.5-.5.2-.5.5zm-26 2c0 .3.2.5.5.5s.5-.2.5-.5-.2-.5-.5-.5-.5.2-.5.5zm7 0c0 .3.2.5.5.5s.5-.2.5-.5-.2-.5-.5-.5-.5.2-.5.5zm17 0c0 .3.2.5.5.5s.5-.2.5-.5-.2-.5-.5-.5-.5.2-.5.5zm-1 2c0 .3.2.5.5.5s.5-.2.5-.5-.2-.5-.5-.5-.5.2-.5.5zm-23 1c0 .3.2.5.5.5s.5-.2.5-.5-.2-.5-.5-.5-.5.2-.5.5zm9.2 2.5c0 1.4.2 1.9.5 1.2.2-.6.2-1.8 0-2.5-.3-.6-.5-.1-.5 1.3zm3.8-1.5c0 .3.2.5.5.5s.5-.2.5-.5-.2-.5-.5-.5-.5.2-.5.5zm9 0c0 .3.2.5.5.5s.5-.2.5-.5-.2-.5-.5-.5-.5.2-.5.5zm0 3c0 .3.2.5.5.5s.5-.2.5-.5-.2-.5-.5-.5-.5.2-.5.5zm12 1c0 .3.2.5.5.5s.5-.2.5-.5-.2-.5-.5-.5-.5.2-.5.5zm-2 1c0 .3.2.5.5.5s.5-.2.5-.5-.2-.5-.5-.5-.5.2-.5.5zm-18 1c0 .3.2.5.5.5s.5-.2.5-.5-.2-.5-.5-.5-.5.2-.5.5zm16 0c0 .3.2.5.5.5s.5-.2.5-.5-.2-.5-.5-.5-.5.2-.5.5zM413.5 59c.3.5.8 1 1.1 1 .3 0 .2-.5-.1-1-.3-.6-.8-1-1.1-1-.3 0-.2.4.1 1zm7.4.7c-1.3 1.6-1.2 1.7.4.4.9-.7 1.7-1.5 1.7-1.7 0-.8-.8-.3-2.1 1.3zm-17.9-.2c0 .3.2.5.5.5s.5-.2.5-.5-.2-.5-.5-.5-.5.2-.5.5zm30 1c0 .3.2.5.5.5s.5-.2.5-.5-.2-.5-.5-.5-.5.2-.5.5zm5 .5c0 .7.3 1 .7.7.3-.4.3-1 0-1.4-.4-.3-.7 0-.7.7zm-33 1.5c0 .3.2.5.5.5s.5-.2.5-.5-.2-.5-.5-.5-.5.2-.5.5zm14 0c0 .3.2.5.5.5s.5-.2.5-.5-.2-.5-.5-.5-.5.2-.5.5zm-14.6 6.7c-.4.7-.3.8.4.4s1.2-.9 1.2-1.2c0-.8-.9-.4-1.6.8zm14.6-.7c0 .3.2.5.5.5s.5-.2.5-.5-.2-.5-.5-.5-.5.2-.5.5zm15 0c0 .3.2.5.5.5s.5-.2.5-.5-.2-.5-.5-.5-.5.2-.5.5zm14.5.5c.3.5.8 1 1.1 1 .3 0 .2-.5-.1-1-.3-.6-.8-1-1.1-1-.3 0-.2.4.1 1zM438 70c0 .7.3 1 .7.7.3-.4.3-1 0-1.4-.4-.3-.7 0-.7.7zm-35 1.5c0 .3.2.5.5.5s.5-.2.5-.5-.2-.5-.5-.5-.5.2-.5.5zm12.4 4.7c-.4.7-.3.8.4.4 1.2-.7 1.6-1.6.8-1.6-.3 0-.8.5-1.2 1.2zm4.1-.2c.3.5.8 1 1.1 1 .3 0 .2-.5-.1-1-.3-.6-.8-1-1.1-1-.3 0-.2.4.1 1zm13.9.2c-.4.7-.3.8.4.4s1.2-.9 1.2-1.2c0-.8-.9-.4-1.6.8zm5.6 1.3c0 .3.2.5.5.5s.5-.2.5-.5-.2-.5-.5-.5-.5.2-.5.5zm-19 1c0 .3.2.5.5.5s.5-.2.5-.5-.2-.5-.5-.5-.5.2-.5.5zm-9 5c0 .3.2.5.5.5s.5-.2.5-.5-.2-.5-.5-.5-.5.2-.5.5zm24 0c0 .3.2.5.5.5s.5-.2.5-.5-.2-.5-.5-.5-.5.2-.5.5zM423.2 86c0 1.4.2 1.9.5 1.2.2-.6.2-1.8 0-2.5-.3-.6-.5-.1-.5 1.3zm-27.5 1.7c-1.2 1.2-.6 9.7.9 12.8.8 1.6 1.1 2.1.8 1-.4-1.1-.9-4.6-1.2-7.7l-.4-5.7 5.3-.4 5.4-.3-5.1-.2c-2.8-.1-5.4.1-5.7.5zm34.3-.2c0 .3.2.5.5.5s.5-.2.5-.5-.2-.5-.5-.5-.5.2-.5.5zm22.5.4 5 .6.6 4.5.7 4.5-.2-5-.1-5-5.5-.1-5.5-.1 5 .6zm-44 1.1c2.7 1.2 4.3 1.2 2.5 0-.8-.5-2.2-.9-3-.9-1 0-.8.3.5.9zm31.8 1.6c-6.1 3.6-9.4 9.7-9.6 17.6l-.2 6.3 5 .1c4.3.1 4.4.1.9-.3-5-.5-5.8-2.2-4.3-9.7 1.2-6.3 5-11.4 10.9-14.4 2.4-1.2 3.8-2.2 3-2.2-.8 0-3.4 1.2-5.7 2.6zm-25.2 2c5.2 5.6 6.9 9.6 6.9 15.6v5.7l-5.2.4-5.3.3 5.8.2c7 .2 7.5-.5 5.9-9.1-1.2-6.4-3.8-11.1-8.1-14.1l-2.6-1.9 2.6 2.9zm42 6.1c-.1.6-.4 2-.7 3-.5 1.7-.5 1.7.6 0 .6-1 .9-2.3.6-3-.3-.9-.5-.9-.5 0zm-58.3 6.8c1.3 2.5 3.9 4.9 7.2 6.4 2.1 1 2.2 1 .6-.1-1.1-.7-3.5-2.9-5.4-4.8-1.9-2-2.9-2.6-2.4-1.5zm55.1.2c-1.3 1.6-1.2 1.7.4.4.9-.7 1.7-1.5 1.7-1.7 0-.8-.8-.3-2.1 1.3zm-6 5.4c-2.3 1.9-2.3 2-.2 1 1.2-.6 2.5-1.6 2.8-2.1 1-1.6-.1-1.2-2.6 1.1zm-38.6 2.6c.4.3 1 .3 1.4 0 .3-.4 0-.7-.7-.7s-1 .3-.7.7zm34 0c.4.3 1 .3 1.4 0 .3-.4 0-.7-.7-.7s-1 .3-.7.7z" />
    <path fill="white"
        d="M852.7 30C830.1 38.4 809 54.1 797 71.4c-5.2 7.6-12.6 24.4-15.1 34.1-2.1 8-2.4 11.3-2.4 29.5.1 19.3.2 21.1 2.8 30.5 5.2 18.8 14.7 35.4 28.4 49 8.9 8.9 15.9 13.8 29 20.1 15.3 7.4 23.3 8.9 47.3 8.9 17.7-.1 21.8-.4 29.7-2.3 36.8-8.8 66.1-38.5 75.9-77 2-7.5 2.6-13.2 3-25.2.3-9.8.1-16.1-.5-17-1.5-2.2-59.6-2.8-62.6-.6-1.8 1.3-2 2.8-2.3 13.9-.5 17.6-1.4 16.7 16.4 16.7 16.6 0 16.5 0 13.9 8.2-7.5 23.3-25.9 41.8-49 49.5-7.2 2.4-9.5 2.7-23 2.7-17.7.1-22.3-.8-35.5-7.1-8.3-4-10.7-5.8-19.6-14.7-8.7-8.8-10.6-11.3-14.6-19.6-6-12.4-7.8-20.8-7.8-36.3 0-22.2 6.4-38.7 21.2-54.8 7.9-8.6 21.1-16.3 34.5-20.1 6.2-1.7 10.4-2.2 20.8-2.2 15.3 0 21.7 1.4 35 7.9 10.3 5 16.9 10.4 25.6 21.1 3.3 4.1 6.6 7.4 7.2 7.4 1.6 0 21.7-11.7 24-13.9 1.8-1.8 1.8-2 .1-5.2-4.3-8.5-16-21.1-27.4-29.6-7.2-5.4-21.6-12.6-31.5-15.7-7.8-2.5-8.8-2.6-34-2.5l-26 .1-7.8 2.8zM297 28.7c-4.1 1.4-4-.4-4 106.3 0 81.9.3 103 1.3 104.4 1 1.4 3.5 1.8 14.3 2.3 12.9.6 13.1.6 14.7-1.8 1.6-2.1 1.7-11 1.7-105.1C325 33.3 325 32 323 30c-1.8-1.8-3.3-2-13.2-1.9-6.2 0-12 .3-12.8.6zm-165.6 2.4c-.8 1.3-.6 208.8.2 210.1.4.7 29 1.3 29.6.5.1-.1.5-20.2.8-44.7l.5-44.5 45.4-.3c31.5-.1 45.8-.6 46.8-1.3 1.8-1.6 1.9-28.4.1-29.6-.7-.4-21.8-1-46.8-1.3l-45.5-.5-.3-28c-.2-25.2-.1-28.1 1.4-29.2 1.3-.9 14.9-1.2 55.8-1.3 49.6 0 54.2-.2 55.4-1.7 1.5-2 1.7-22.9.2-26.7l-1-2.6h-70.9c-51 0-71.2.3-71.7 1.1zm293.3 10.6c-.9.8-.9 7.6-.1 9.7.3.9 1.4 1.6 2.4 1.6 2.2 0 3-1.9 3-7 0-2.5-.5-4-1.6-4.4-2-.8-2.9-.8-3.7.1zM412 47c-1.2 2.2-.8 3.3 2.3 6.7 2.8 3.2 5.7 3 5.7-.3 0-6.5-5.6-10.9-8-6.4zm25.4-1.2c-3.5 2.3-5 10.2-2 10.2 1.7 0 5.4-2.8 6.6-5.1 1.9-3.5-1.4-7.2-4.6-5.1zm-31.6 10.3c-1 .6-1.8 2.1-1.8 3.4 0 2.3.5 2.7 6 3.9 3.6.8 5.8-.8 4.4-3.1-1.9-3-6.7-5.3-8.6-4.2zm37 1c-2.3 1.2-3.8 2.7-3.8 3.8 0 2.5 1.6 3 6.5 2.2 3.2-.5 4.1-1.1 4.3-2.9.3-2.2-1.3-5.3-2.7-5.2-.3.1-2.3 1-4.3 2.1zm-18.5.9c-3.8 1.5-5.8 5.6-4.7 9.8 2.1 8.6 13.6 7.9 15-1 .6-3.2.2-4.1-2.4-6.8-3.2-3.2-4.3-3.4-7.9-2zm-19.1 11.2c-1.6 1.6-1.5 4.3.2 5.7 2.1 1.7 9.6-2.2 9.6-4.9 0-1.7-.7-2-4.3-2-2.4 0-4.8.5-5.5 1.2zm33.8.7c0 2.6 6.9 6.7 9 5.3.8-.5 1.6-1.7 1.8-2.6.6-2.9-1.8-4.6-6.4-4.6-3.7 0-4.4.3-4.4 1.9zm-24.9 8c-1.7 1.6-3.1 3.2-3.1 3.6 0 1.9 2.3 4.5 4.1 4.5 2.6 0 6.4-7.8 4.7-9.7-1.5-1.9-2.2-1.7-5.7 1.6zm19.9-1.4c-1 1.2-.8 2.2.7 5.2 2.2 4.2 5 5.4 6.9 2.8 1.6-2.1.8-4.4-2.5-7.2-3.1-2.7-3.5-2.7-5.1-.8zm-9.5 3.8c-.4 1.3-.5 3.9-.3 5.8.2 2.6.8 3.5 2.5 3.7 3.3.5 4.6-2.7 2.9-7.5-1.5-4.5-4.2-5.6-5.1-2zm165.2 6.3c-8.1 1.8-15.9 5.1-22.1 9.3-2.5 1.7-4.9 3.1-5.5 3.1-.6 0-1.1-1.7-1.1-3.8 0-7.2-1.1-7.7-16-7.7-11.9 0-13.3.2-14.6 1.9-1.2 1.7-1.4 13.7-1.4 75.7 0 67.3.1 73.8 1.7 75 2.3 2 26.3 2 28.6.1 1.5-1.2 1.7-6.6 1.9-49.5l.3-48.2 2.9-5.9c5.9-12 15.4-18.2 29.8-19.4l8.3-.7 2.2-10c1.3-5.5 2.4-12.5 2.5-15.5l.3-5.5-5.5-.2c-3-.1-8.6.5-12.3 1.3zm487.8-.6c-17.4 2.2-31.9 9.5-45 22.5-7.7 7.7-9.8 10.4-13.7 18.5-6.2 12.8-8.2 22.2-8.3 38.5 0 14 1.5 21.8 6.2 32.3 10.2 23 32.3 40.7 55.4 44.3 11.6 1.8 35.8.6 43.9-2.1 18.4-6.2 33-18.3 42.9-35.4 7.2-12.6 10.1-38 6.6-59.3-2.6-16-7.8-25.8-20-38-7-6.9-9.9-9-18.7-13.2-5.8-2.9-13.5-5.7-17.3-6.5-9.5-2-23.5-2.6-32-1.6zm25 32.5c10.5 2.7 16.9 6.9 23.8 15.4 15.4 18.8 13.8 47-3.6 64.9-9.1 9.3-21.5 13.7-37 13-8.6-.3-10.2-.8-17.3-4.3-10.2-5-17.1-11.9-22.1-22.3-3.8-7.7-3.8-7.8-3.8-20.2.1-14.8 1.7-20 9.4-30.1 6.7-8.8 12.4-12.8 23.1-16.1 7-2.1 19.9-2.2 27.5-.3zM687 88c-12.9.9-20.8 3-32.5 8.5-20.1 9.6-35.3 27.5-42.1 49.6-2 6.5-2.7 11.3-3.1 21.4-.7 15.7 1.3 25.1 7.8 38.4 7.5 15.2 24.6 29.7 40.7 34.3 4.3 1.3 11.3 2.2 19.5 2.5 15.4.7 22.7-.8 36.6-7.3 5.2-2.4 9.8-4.1 10.2-3.7.4.5.9 2.4 1.1 4.3.5 5.3 3 6.2 17.5 5.8 6.7-.2 12.6-.7 13-1.2.4-.4.9-32.9 1.1-72.1.3-79.6.5-77.2-6.2-80-2.8-1.2-8.6-1.5-28.3-1.3-13.6 0-29.5.4-35.3.8zm36.8 32.2c1.5 1.5 1.7 48.8.2 58.7-1.8 12.9-10 23.8-22 29.5-6 2.8-7.4 3.1-17.1 3.1-10.2 0-10.7-.1-18.2-3.8-9.6-4.8-16.6-11.5-21.5-21l-3.7-7.2V166c0-13.5 0-13.5 3.6-21.1 6.2-12.9 19-23 31.6-24.8 9.5-1.4 45.7-1.3 47.1.1zM375.5 106c-8.2 1.5-21.8 20.9-25.5 36.5-3.6 15.3-3 34 1.5 48.4 7.3 23.1 26.2 41.7 50 49.3 4.4 1.4 10.3 2.1 22.2 2.5 19.4.7 25.9-.5 39.8-7.2 15.6-7.6 27.4-19.4 35-35 5.8-12.1 7-18 7-36.5 0-18.6-.8-22.7-7.6-36.5-7.2-14.7-15.4-22.5-23.9-22.5-9.5 0-16 6.3-16 15.5 0 5.4 1.8 9 8 16.2 1.5 1.7 3.7 5.6 4.9 8.7 9.2 24.8-.6 50.9-23.4 62.2-6 3-8.5 3.6-16.2 4.1-11 .7-19.8-.8-26.8-4.5-6.5-3.5-16.2-13.3-19.8-19.9-3.9-7.2-6-18.1-5.2-26.4 1.1-11.8 3.9-18.6 11.3-28.1 3.5-4.6 4.6-6.8 5-10.6 1-11.2-8-18.4-20.3-16.2z" />
    <path fill="#0F0"
        d="M396 92.4c0 12.3 8.9 21.6 20.7 21.6h5.3v-5.8c0-4.7-.6-6.7-2.8-10.3-4.9-7.5-9.3-9.9-18.3-9.9H396v4.4zm47.1-2.2c-2.5 1.3-5.7 3.9-7.3 5.8-2.9 3.7-5.1 12.1-4.1 16 .5 2.1 1 2.2 6.7 1.8 6.4-.4 11.8-3.2 15.6-8 2.4-3.2 4.2-9.6 3.8-13.8-.3-3.4-.4-3.5-5.3-3.8-3.7-.2-6.2.3-9.4 2z" />
</svg>